<svg width="18" height="18" viewBox="0 0 18 18" fill="none" xmlns="http://www.w3.org/2000/svg">
<path d="M9.12067 0.162598C6.8115 0.162598 6.52321 0.173223 5.61654 0.213598C4.71129 0.256098 4.09504 0.398473 3.55317 0.608848C2.99429 0.825598 2.51971 1.11672 2.04725 1.58918C1.57479 2.06164 1.28296 2.53551 1.06692 3.0951C0.856542 3.63697 0.713458 4.25322 0.671666 5.15847C0.629167 6.06514 0.620667 6.35343 0.620667 8.6626C0.620667 10.9718 0.631292 11.2601 0.671666 12.1667C0.714166 13.0713 0.856542 13.6882 1.06692 14.2301C1.28367 14.7883 1.57479 15.2636 2.04725 15.736C2.51971 16.2078 2.99358 16.5003 3.55317 16.7163C4.09575 16.926 4.712 17.0698 5.61654 17.1116C6.52321 17.1541 6.8115 17.1626 9.12067 17.1626C11.4298 17.1626 11.7181 17.152 12.6248 17.1116C13.5293 17.0691 14.1463 16.926 14.6882 16.7163C15.2463 16.4996 15.7216 16.2078 16.1941 15.736C16.6658 15.2636 16.9584 14.7904 17.1744 14.2301C17.3841 13.6882 17.5279 13.0713 17.5697 12.1667C17.6122 11.2601 17.6207 10.9718 17.6207 8.6626C17.6207 6.35343 17.61 6.06514 17.5697 5.15847C17.5272 4.25393 17.3841 3.63626 17.1744 3.0951C16.9577 2.53622 16.6658 2.06164 16.1941 1.58918C15.7216 1.11672 15.2485 0.824889 14.6882 0.608848C14.1463 0.398473 13.5293 0.255389 12.6248 0.213598C11.7181 0.171098 11.4298 0.162598 9.12067 0.162598ZM9.12067 1.6926C11.3895 1.6926 11.66 1.70393 12.5561 1.74289C13.3848 1.78185 13.8346 1.91926 14.1335 2.03685C14.5316 2.19056 14.8135 2.37472 15.1125 2.67151C15.4092 2.96901 15.5934 3.25164 15.7471 3.64972C15.8633 3.94864 16.0021 4.39843 16.0397 5.22718C16.08 6.12393 16.0892 6.3931 16.0892 8.6626C16.0892 10.9321 16.0786 11.202 16.0368 12.098C15.9936 12.9268 15.8555 13.3766 15.7386 13.6755C15.58 14.0736 15.3993 14.3555 15.1018 14.6544C14.805 14.9512 14.5182 15.1353 14.1243 15.2891C13.8268 15.4052 13.37 15.5441 12.5412 15.5816C11.6388 15.622 11.3732 15.6312 9.09942 15.6312C6.82496 15.6312 6.55933 15.6206 5.65762 15.5788C4.82817 15.5356 4.37129 15.3974 4.07379 15.2806C3.67075 15.1219 3.39379 14.9413 3.097 14.6438C2.79879 14.347 2.60825 14.0601 2.4595 13.6663C2.34262 13.3688 2.20521 12.9119 2.162 12.0831C2.13012 11.1906 2.11879 10.9151 2.11879 8.65197C2.11879 6.38814 2.13012 6.11189 2.162 5.20876C2.20521 4.38001 2.34262 3.92385 2.4595 3.62635C2.60825 3.2226 2.79879 2.94635 3.097 2.64814C3.39379 2.35135 3.67075 2.1601 4.07379 2.01206C4.37129 1.89447 4.81825 1.75635 5.647 1.71385C6.55012 1.68197 6.81575 1.67135 9.08879 1.67135L9.12067 1.6926ZM9.12067 4.29785C6.70879 4.29785 4.75592 6.25285 4.75592 8.6626C4.75592 11.0745 6.71092 13.0273 9.12067 13.0273C11.5325 13.0273 13.4854 11.0723 13.4854 8.6626C13.4854 6.25072 11.5304 4.29785 9.12067 4.29785ZM9.12067 11.4959C7.55525 11.4959 6.28733 10.228 6.28733 8.6626C6.28733 7.09718 7.55525 5.82926 9.12067 5.82926C10.6861 5.82926 11.954 7.09718 11.954 8.6626C11.954 10.228 10.6861 11.4959 9.12067 11.4959ZM14.6783 4.12572C14.6783 4.68885 14.2207 5.14572 13.6582 5.14572C13.0951 5.14572 12.6382 4.68814 12.6382 4.12572C12.6382 3.56331 13.0958 3.10643 13.6582 3.10643C14.22 3.10572 14.6783 3.56331 14.6783 4.12572Z" fill="white" fill-opacity="0.65"/>
</svg>
