<svg width="19" height="19" viewBox="0 0 19 19" fill="none" xmlns="http://www.w3.org/2000/svg">
<path d="M15.6414 15.7944H13.063V11.7541C13.063 10.7906 13.0434 9.55075 11.7194 9.55075C10.375 9.55075 10.1697 10.5991 10.1697 11.683V15.7944H7.59129V7.48599H10.0681V8.61849H10.1015C10.4476 7.96554 11.2891 7.27632 12.5464 7.27632C15.1589 7.27632 15.6421 8.99575 15.6421 11.2339L15.6414 15.7944ZM4.67915 6.34914C3.84919 6.34914 3.18246 5.67733 3.18246 4.851C3.18246 4.02538 3.84991 3.3543 4.67915 3.3543C5.50622 3.3543 6.17657 4.02538 6.17657 4.851C6.17657 5.67733 5.50549 6.34914 4.67915 6.34914ZM5.97198 15.7944H3.38632V7.48599H5.97198V15.7944ZM16.9313 0.956543H2.09204C1.38178 0.956543 0.80719 1.51808 0.80719 2.21092V17.114C0.80719 17.8076 1.38178 18.3684 2.09204 18.3684H16.9291C17.6387 18.3684 18.2191 17.8076 18.2191 17.114V2.21092C18.2191 1.51808 17.6387 0.956543 16.9291 0.956543H16.9313Z" fill="white" fill-opacity="0.65"/>
</svg>
