<svg width="18" height="15" viewBox="0 0 18 15" fill="none" xmlns="http://www.w3.org/2000/svg">
<path d="M17.4626 2.29889C16.8238 2.57968 16.1417 2.77097 15.4234 2.85831C16.1554 2.41727 16.7184 1.72214 16.9848 0.892758C16.2983 1.29338 15.5375 1.585 14.7276 1.74741C14.0808 1.05517 13.159 0.62207 12.1355 0.62207C10.1743 0.62207 8.58406 2.21227 8.58406 4.17133C8.58406 4.45284 8.61655 4.72353 8.67574 4.98267C5.72344 4.84335 3.10679 3.42567 1.35562 1.28255C1.0474 1.80371 0.87488 2.40933 0.87488 3.06909C0.87488 4.30342 1.50288 5.38834 2.45425 6.02572C1.87173 6.00695 1.32386 5.8467 0.846007 5.58107V5.6251C0.846007 7.34667 2.06807 8.7824 3.69436 9.10939C3.39625 9.18951 3.08153 9.23282 2.75887 9.23282C2.53221 9.23282 2.31494 9.21117 2.09767 9.17075C2.55314 10.5805 3.86255 11.6084 5.42099 11.6373C4.20831 12.5894 2.67152 13.1567 1.01636 13.1567C0.734844 13.1567 0.454051 13.1401 0.171814 13.1083C1.75191 14.1146 3.61352 14.7029 5.62671 14.7029C12.1622 14.7029 15.7317 9.29202 15.7317 4.60731C15.7317 4.45645 15.7317 4.30414 15.7208 4.15256C16.4145 3.65522 17.0201 3.0265 17.4965 2.31333L17.4626 2.29889Z" fill="white" fill-opacity="0.65"/>
</svg>
